<svg xmlns="http://www.w3.org/2000/svg" viewBox="0 0 985.29 704.36"><defs><style>.cls-1,.cls-2{fill:#f55;}.cls-1{opacity:0.4;}.cls-3{fill:blue;opacity:0.47;}</style></defs><title>Asset 2</title><g id="Layer_2" data-name="Layer 2"><g id="Layer_1-2" data-name="Layer 1"><path class="cls-1" d="M320.17,559c-20.48-69.11,73.81,12.64,107.39,8S269.28,480.69,216.3,449.8c-16.62-9.68-141.75-99.63-26.33-80.18S429.78,497.11,429.78,497.11s14.1-21.3-49.91-65.5-414-158.8-347.33-201.85,258.93,76.1,258.93,76.1,40.07,6-12-29.51S-120.94,47.27,44,88.87s226.54,152.4,301.09,192.6c9.09,4.9,20.27-2.86-3.43-39.34S236.35,97.88,236.35,97.88s-112.76-176.95,10.75-55S385.79,311.46,442.7,396.93c23.25,34.92,43.82,37.52-17.93-131.64S390.9,108.38,414.4,141.63c66.11,93.56,141.33,348.55,117.67,388s25,5.21,25,5.21,24.86-61.13-6.88-109-10.92-72,17.57-37,119.89,203.42-7.86,261.75C529.08,664.55,340.65,628.09,320.17,559Z"/><path class="cls-2" d="M385.58,530.75c39.19-1.11,102.53,64,102.53,64s-97.51-133.89-85-182.22c7-27.15,15.12-10.36,85.61,71.41s-85.47-193.53-38-196.58S544.8,475.53,544.8,475.53s1.3-310.67,25.72-210.22,8.6,202.25,8.6,202.25,68.71-199.66,48.06-76.2-32.77,146.82-32.77,146.82,108-209.92,61.36-85-33,108.07-33,108.07,113.55-157.58,65.57-57.44-64.51,123.37-64.51,123.37-48.38,58.68-90.09,41.46C463.19,639.5,361,531.44,385.58,530.75Z"/><path class="cls-3" d="M507.11,646.35s-36-221,0-159c69.19,119.16,89.88,171.09,50,159-36-10.91,21-149,21-149s41-42,25,52,89-152,89-152,97-149,88-40,105-8,105-8,169-50,68,55-2,84-2,84,92-7-124,98,40,16,40,16,105,103-129,102S507.11,646.35,507.11,646.35Z"/></g></g></svg>