<?xml version="1.0" encoding="utf-8"?>
<svg version="1.1" id="Слой_1" xmlns="http://www.w3.org/2000/svg" xmlns:xlink="http://www.w3.org/1999/xlink" x="0px" y="0px"
	 viewBox="0 0 512 512" style="enable-background:new 0 0 512 512;" xml:space="preserve">
<style type="text/css">
	.st0{fill:#4B992B;}
	.st1{fill:#C0F060;}
	.st2{fill:#6CCC45;}
	.st3{fill:#FFF566;}
	.st4{fill:#FF728B;}
	.st5{fill:#FF3F62;}
	.st6{fill:#FF0C38;}
	.st7{fill:#FFEB99;}
	.st8{fill:#FFDA44;}
</style>
<path class="st0" d="M256.2,512c-8.4,0-15.3-6.8-15.3-15.3V323.1c0-8.4,6.8-15.3,15.3-15.3s15.3,6.8,15.3,15.3v173.6
	C271.5,505.2,264.6,512,256.2,512z"/>
<path class="st1" d="M360.1,356.5c-1.9-0.4-46-9.1-78.9,13.8c-11,7.7-19.1,17.8-25.1,27.9c-5.9-10.1-14-20.2-25.1-27.9
	c-32.9-22.9-77-14.2-78.9-13.8c-8,1.6-13.2,9.2-12,17.2c0.3,1.9,7.3,46.3,40.2,69.3c18.4,12.9,40.4,15.8,56.5,15.8
	c8.6,0,15.5-0.8,19.3-1.4c3.8,0.6,10.7,1.4,19.3,1.4c16.1,0,38.1-2.9,56.5-15.8c32.9-22.9,39.9-67.4,40.2-69.3
	C373.4,365.7,368.1,358.1,360.1,356.5z"/>
<path class="st2" d="M360.1,356.5c-1.9-0.4-46-9.1-78.9,13.8c-11,7.7-19.1,17.8-25.1,27.9v59.1c3.8,0.6,10.7,1.4,19.3,1.4
	c16.1,0,38.1-2.9,56.5-15.8c32.9-22.9,39.9-67.4,40.2-69.3C373.4,365.7,368.1,358.1,360.1,356.5z"/>
<path class="st3" d="M256.2,338.4c-4.2,0-8.2-1.7-11.1-4.7c-0.7-0.7-13.4-14.2-23.7-34.8c-19.3,12.7-37,18-37.9,18.3
	c-4,1.2-8.3,0.7-11.9-1.4c-3.6-2.1-6.2-5.6-7.2-9.6c-0.2-1-4.5-18.9-3.1-42c-23.1,1.4-41-2.9-42-3.1c-4.1-1-7.5-3.6-9.6-7.2
	c-2.1-3.6-2.6-7.9-1.4-11.9c0.3-1,5.6-18.6,18.3-37.9c-20.7-10.3-34.1-23-34.8-23.7c-3-2.9-4.7-6.9-4.7-11.1c0-4.2,1.7-8.2,4.7-11.1
	c0.7-0.7,14.2-13.4,34.8-23.7c-12.7-19.3-18-37-18.3-37.9c-1.2-4-0.7-8.3,1.4-11.9c2.1-3.6,5.6-6.2,9.6-7.2c1-0.2,18.9-4.5,42-3.1
	c-1.4-23,2.9-41,3.1-42c1-4.1,3.6-7.5,7.2-9.6c3.6-2.1,7.9-2.6,11.9-1.4c0.9,0.3,18.6,5.6,37.9,18.3c10.3-20.7,23-34.1,23.7-34.8
	C248,1.7,252,0,256.2,0s8.2,1.7,11.1,4.7c0.7,0.7,13.4,14.2,23.7,34.8c19.3-12.7,37-18,37.9-18.3c4-1.2,8.3-0.7,12,1.4
	s6.2,5.6,7.2,9.6c0.2,1,4.5,18.9,3.1,42c23.1-1.4,41,2.9,42,3.1c4.1,1,7.5,3.6,9.6,7.2c2.1,3.6,2.6,7.9,1.4,11.9
	c-0.3,1-5.6,18.6-18.3,37.9c20.7,10.3,34.1,23,34.8,23.7c3,2.9,4.7,6.9,4.7,11.1s-1.7,8.2-4.7,11.1c-0.7,0.7-14.2,13.4-34.8,23.7
	c12.7,19.3,18,37,18.3,37.9c1.2,4,0.7,8.3-1.4,11.9c-2.1,3.6-5.6,6.2-9.6,7.2c-1,0.2-18.9,4.5-42,3.1c1.4,23-2.9,41-3.1,42
	c-1,4.1-3.6,7.5-7.2,9.6c-3.6,2.1-7.9,2.6-12,1.4c-0.9-0.3-18.6-5.6-37.9-18.3c-10.3,20.7-23,34.1-23.7,34.8
	C264.4,336.7,260.4,338.4,256.2,338.4z"/>
<g>
	<path class="st4" d="M218.2,235.3c-73.3,127-184.8-66.1-38.2-66.1c-146.7,0-35.2-193.1,38.2-66.1c-73.3-127,149.6-127,76.3,0
		c73.3-127,184.8,66.1,38.2,66.1c146.7,0,35.2,193.1-38.2,66.1C367.9,362.3,144.9,362.3,218.2,235.3z"/>
	<path class="st5" d="M332.7,169.1l-74.4-1l0-0.1l-0.1,0l36.2-64.9c73.3-127-149.6-127-76.3,0l36.2,65l-0.1,0l0,0.1l-74.4,1.3
		c-146.7,0.5-34.5,193.2,38.4,66l37.9-64l0,0.1l0-0.1l38.2,63.8C368.1,362.2,479.3,168.9,332.7,169.1z"/>
	<g>
		<path class="st6" d="M256.4,269.3c-2.7,0-4.9,2.2-4.9,4.9V295c0,2.7,2.2,4.9,4.9,4.9c2.7,0,4.9-2.2,4.9-4.9v-20.7
			C261.3,271.5,259.1,269.3,256.4,269.3z"/>
		<path class="st6" d="M177.9,110.4l12.7,10.6c0.9,0.8,2,1.1,3.2,1.1c1.4,0,2.8-0.6,3.8-1.8c1.7-2.1,1.5-5.2-0.6-7l-12.7-10.6
			c-2.1-1.7-5.2-1.5-7,0.6C175.6,105.6,175.8,108.7,177.9,110.4z"/>
		<path class="st6" d="M170.2,210.3l-18.3,9.9c-2.4,1.3-3.3,4.3-2,6.7c0.9,1.7,2.6,2.6,4.3,2.6c0.8,0,1.6-0.2,2.3-0.6l18.3-9.9
			c2.4-1.3,3.3-4.3,2-6.7C175.6,209.9,172.6,209,170.2,210.3z"/>
		<path class="st6" d="M345.3,241.8L332.1,230c-2-1.8-5.2-1.6-7,0.4c-1.8,2-1.6,5.2,0.4,7l13.2,11.7c0.9,0.8,2.1,1.3,3.3,1.3
			c1.4,0,2.7-0.6,3.7-1.7C347.5,246.7,347.3,243.6,345.3,241.8z"/>
		<path class="st6" d="M343.7,194.8l-75.9-26.9l76.9-48.6c2.3-1.5,3-4.5,1.5-6.8c-1.5-2.3-4.5-3-6.8-1.5l-78,49.2V86.5
			c0-2.7-2.2-4.9-4.9-4.9c-2.7,0-4.9,2.2-4.9,4.9v72.1L209.8,124c-2.1-1.7-5.2-1.5-7,0.6c-1.7,2.1-1.5,5.2,0.6,7l28.3,23.5l-67-24
			c-2.6-0.9-5.4,0.4-6.3,3c-0.9,2.6,0.4,5.4,3,6.3l83,29.7l-52.9,28.7c-2.4,1.3-3.3,4.3-2,6.7c0.9,1.7,2.6,2.6,4.3,2.6
			c0.8,0,1.6-0.2,2.3-0.6l55.2-29.9l0,75.9c0,2.7,2.2,4.9,4.9,4.9h0c2.7,0,4.9-2.2,4.9-4.9l0-73.4l51.6,46c0.9,0.8,2.1,1.3,3.3,1.3
			c1.4,0,2.7-0.6,3.7-1.7c1.8-2,1.6-5.2-0.4-7l-40.9-36.5l61.8,21.9c0.5,0.2,1.1,0.3,1.6,0.3c2,0,3.9-1.3,4.7-3.3
			C347.6,198.6,346.2,195.7,343.7,194.8z"/>
		<path class="st6" d="M256.5,68.4c2.7,0,4.9-2.2,4.9-4.9V42.6c0-2.7-2.2-4.9-4.9-4.9c-2.7,0-4.9,2.2-4.9,4.9v20.9
			C251.5,66.2,253.8,68.4,256.5,68.4z"/>
	</g>
	
		<ellipse transform="matrix(8.248050e-02 -0.9966 0.9966 8.248050e-02 66.7177 410.8377)" class="st7" cx="256.5" cy="169.2" rx="38.5" ry="38.5"/>
	<path class="st8" d="M237.5,169.2c0-17.9,12.2-33,28.8-37.3c-3.1-0.8-6.4-1.3-9.8-1.3c-21.3,0-38.5,17.2-38.5,38.5
		s17.2,38.5,38.5,38.5c3.4,0,6.6-0.4,9.8-1.3C249.7,202.1,237.5,187.1,237.5,169.2z"/>
</g>
</svg>
