<?xml version="1.0" encoding="utf-8"?>
<!-- Generator: Adobe Illustrator 22.1.0, SVG Export Plug-In . SVG Version: 6.00 Build 0)  -->
<svg version="1.1" id="Слой_1" xmlns="http://www.w3.org/2000/svg" xmlns:xlink="http://www.w3.org/1999/xlink" x="0px" y="0px"
	 viewBox="0 0 200 200" style="enable-background:new 0 0 200 200;" xml:space="preserve">
<style type="text/css">
	.st0{fill:#FFFFFF;}
	.st1{fill:#9F272D;}
	.st2{fill:#89272D;}
</style>
<path class="st0" d="M145.4,6h-6c8.5,12.6,16.9,37,15,54c-1,8.9-9.6,28.9-49.2,28.9S57,68.9,56,60c-1.9-17,6.5-41.4,15-54h-6
	C50.4,33.9,46,60.5,55,72c4.4,5.6,10,10,10,10c7.6,6,11.2,5.6,20,12c5.4,3.9,9.2,6.8,12,12c2.7,5.1,4.8,9.7,5,15
	c1,27.1,0.9,30.4-1,45c-1.4,11-3.2,14.6-6,17c-1.7,1.5-3.9,2.5-15,5c-9.8,2.2-15,2.5-15,3c0,0.5,31.7,0.9,39.4,1c0,0,0,0,0,0
	s0.3,0,0.8,0c0.5,0,0.8,0,0.8,0s0,0,0,0c7.6-0.1,39.3-0.5,39.4-1c0-0.5-5.2-0.8-15-3c-11.1-2.5-13.3-3.5-15-5c-2.8-2.4-4.6-6-6-17
	c-1.9-14.6-2-17.9-1-45c0.2-5.3,2.3-9.9,5-15c2.8-5.2,6.6-8.1,12-12c8.8-6.4,12.4-6,20-12c0,0,5.6-4.4,10-10
	C164.3,60.5,159.9,33.9,145.4,6z"/>
<path class="st1" d="M147.2,32c0,0-11.9,9.9-19.8,10.3c-10,0.5-16.7-2.4-22.2-4.3c-5.7-2.1-13-7.5-23-8c-8-0.4-19,2-19,2
	s-6.2,18-4,30c3,16,18.4,20.6,24,22c5.4,1.4,16.4,3,22,3s16.6-1.6,22-3c5.6-1.4,21-6,24-22C153.4,50,147.2,32,147.2,32z"/>
<path class="st2" d="M63.2,32c0,0,11.9,9.9,19.8,10.3c10,0.5,16.7-2.4,22.2-4.3c5.7-2.1,13-7.5,23-8c8-0.4,19,2,19,2s6.2,18,4,30
	c-3,16-18.4,20.6-24,22c-5.4,1.4-16.4,3-22,3s-16.6-1.6-22-3c-5.6-1.4-21-6-24-22C56.9,50,63.2,32,63.2,32z"/>
</svg>
